<svg width="124" height="45" viewBox="0 0 124 45" fill="none" xmlns="http://www.w3.org/2000/svg">
<path d="M69.425 18.3266L69.9476 29.2137L70.4702 18.3266L71.0265 9.07257H73.1843L71.0265 38.4677H68.8687L66.7109 9.07257H68.8687L69.425 18.3266Z" fill="#B7B7B7"/>
<path d="M84.135 12.3387V38.4677H81.9772V12.3387H84.135Z" fill="#B7B7B7"/>
<path d="M95.6251 12.3387V36.8347H97.7829V38.4677H93.4673V12.3387H95.6251Z" fill="#B7B7B7"/>
<path d="M107.924 12.3387V36.8347H110.082V38.4677H105.767V12.3387H107.924Z" fill="#B7B7B7"/>
<path d="M124 38.4677H121.842L121.505 32.82H120.005L119.684 38.4677H117.526L119.684 12.3387H121.842L124 38.4677ZM121.387 31.0509L120.763 17.7822L120.123 31.0509H121.387Z" fill="#B7B7B7"/>
<path d="M44.594 22.5005C44.594 34.9279 34.6121 45.0004 22.2973 45C9.98191 45.0004 2.79259e-08 34.9279 2.79259e-08 22.5005C-0.000609655 10.0731 9.98191 0 22.2973 0C34.6121 0 44.594 10.0735 44.594 22.5005Z" fill="#EFC536"/>
<path d="M44.5942 22.5005C44.5942 20.5337 44.3426 18.6266 43.8728 16.8084C43.8707 16.8068 43.8695 16.8044 43.8674 16.8029C43.8302 16.7507 35.7293 8.57603 35.6776 8.53859C35.571 8.38918 35.4056 8.28555 35.2093 8.28555H30.514C30.4954 8.28555 30.4799 8.29443 30.4618 8.29628C30.4261 8.30085 30.3922 8.30612 30.3576 8.31737C30.2948 8.33547 30.239 8.3629 30.1867 8.39937C30.1858 8.3999 30.1848 8.39999 30.1839 8.4006L30.1767 8.40614C30.1474 8.4275 30.1159 8.44455 30.091 8.47091L25.4619 11.973C25.4406 11.9898 25.4163 12.0019 25.3976 12.0216L20.7472 15.5398C20.7334 15.5516 20.7168 15.5593 20.7042 15.5723L16.0324 19.1066C16.0257 19.1127 16.0172 19.1163 16.0108 19.123C16.0108 19.123 11.3177 22.6733 11.3174 22.6735L9.03293 24.4019C8.77355 24.5978 8.72086 24.9692 8.91508 25.2306C8.94627 25.2727 8.99051 25.2953 9.02953 25.3263C9.03711 25.3384 9.03868 25.3524 9.04721 25.3638C9.07839 25.4059 11.1444 27.4628 11.1457 27.4646V31.9762H9.3848C9.06062 31.9762 8.79785 32.2412 8.79785 32.5685V36.1221C8.79785 36.3203 8.90063 36.4872 9.04869 36.5945C9.08588 36.6466 16.5262 44.1547 16.5778 44.1922C16.6002 44.2237 16.63 44.2467 16.6574 44.2725C18.459 44.7464 20.3487 44.9999 22.2975 44.9999C34.6123 45.0004 44.5942 34.9278 44.5942 22.5005Z" fill="#929292"/>
<path d="M35.2094 17.7619H31.101V9.47021H35.2094C35.5336 9.47021 35.7964 9.20531 35.7964 8.878C35.7964 8.55061 35.5335 8.28571 35.2094 8.28571H30.5141C30.4955 8.28571 30.4798 8.29467 30.4619 8.29634C30.4262 8.30091 30.3923 8.30627 30.3576 8.31752C30.2948 8.33545 30.2391 8.36287 30.1868 8.39952C30.1859 8.40005 30.1849 8.40014 30.184 8.40084L30.1767 8.40638C30.1475 8.42765 30.1159 8.44479 30.0911 8.47115L25.462 11.9731C25.4407 11.9899 25.4164 12.002 25.3977 12.0217L20.7473 15.5398C20.7335 15.5516 20.7169 15.5593 20.7044 15.5723L16.0326 19.1065C16.0259 19.1127 16.0174 19.1164 16.0109 19.1229L11.3178 22.6732L11.3176 22.6734L9.03301 24.4018C8.77364 24.5978 8.72094 24.9691 8.91517 25.2306C9.03066 25.3862 9.20686 25.4677 9.38541 25.4677C9.50778 25.4677 9.63129 25.4289 9.73676 25.3491L11.1456 24.2833V31.9763H9.38472C9.06054 31.9763 8.79785 32.2412 8.79785 32.5686V36.1222C8.79785 36.4496 9.06071 36.7145 9.38472 36.7145H35.2093C35.5335 36.7145 35.7963 36.4496 35.7963 36.1222V18.3541C35.7963 18.0268 35.5335 17.7619 35.2094 17.7619ZM29.3402 17.7619C29.016 17.7619 28.7532 18.0268 28.7532 18.3541V21.3155H26.4055V12.7389L29.927 10.075V17.762H29.3402V17.7619ZM24.6448 21.3155C24.3206 21.3155 24.058 21.5804 24.058 21.9077V24.2768H21.7102V16.291L25.2318 13.6271V21.3155H24.6448ZM19.3625 24.2769C19.0384 24.2769 18.7756 24.5418 18.7756 24.8691V28.4227H17.0149V19.8432L20.5364 17.1792V24.2769H19.3625ZM12.3194 23.3953L15.8409 20.7313V28.4229H14.6671C14.3429 28.4229 14.0801 28.6878 14.0801 29.0151V31.9764H12.3195L12.3194 23.3953ZM34.6225 35.5299H9.97167V33.1608H14.667C14.9912 33.1608 15.254 32.8959 15.254 32.5685V29.6072H19.3624C19.6866 29.6072 19.9493 29.3423 19.9493 29.0149V25.4613H24.6446C24.9688 25.4613 25.2316 25.1964 25.2316 24.869V22.5H29.3401C29.6643 22.5 29.927 22.2351 29.927 21.9077V18.9464H34.6224V35.5299H34.6225Z" fill="#F4F6F9"/>
</svg>
